<?xml version="1.0" encoding="UTF-8"?>
<svg id="Layer_1" data-name="Layer 1" xmlns="http://www.w3.org/2000/svg" xmlns:xlink="http://www.w3.org/1999/xlink" viewBox="0 0 590 468">
  <defs>
    <style>
      .cls-1 {
        clip-path: url(#clippath);
      }

      .cls-2 {
        fill: none;
      }
    </style>
    <clipPath id="clippath">
      <rect class="cls-2" width="590" height="468"/>
    </clipPath>
  </defs>
  <g class="cls-1">
    <g>
      <path d="m448.57,390.94c33.8,5.18,65.48,11.97,97.58,22.87-17.63-3.16-35.2-6.78-52.92-9.34-17.71-2.55-35.58-4.03-55.31-6.2,3.66-2.54,7.98-5.49,10.64-7.34m.15-.91s-27.57-3.03-35.38-3.7c-6.6-.57-5.36-.47-8.41-.69-8.15-.61-16.31-1.05-24.45-1.64-5.96-.43-9.86,2.27-10.01,7.02-.15,4.76,3.39,7.45,9.61,7.52,17.99.21,35.98.48,53.97.74.94.01,2.39.04,3.34.04.59,0,1.51.05,1.51.05,0,0-16.71,11.67-24.9,15.67-8.55,4.18-17.39,7.21-26.5,9.09-10.18,2.1-19.36,2.37-25.67,2.21,0,0-.07,0-.14,0-9.03-.24-22.76-2.33-44.31-8.69-8.22-4.23-16.43-8.47-24.65-12.7.76-3.74,1.74-6.65,1.86-9.59.24-5.82.06-11.66-.04-17.49-.06-3.4-1.36-5.92-5.28-5.81-3.67.11-4.77,2.56-4.79,5.74-.04,6.67-.18,13.34.05,19.99.07,2,1.22,3.97,1.92,6.11-44.88,31.83-107.03,29.4-145.01-4.48,7.53-.34,14.42-.84,21.32-.92,12.33-.13,24.66,0,36.99,0,5.47,0,8.76-2.81,8.75-7.33,0-4.65-3.75-7.68-9.32-7.17-21.87,1.99-43.72,4.08-65.58,6.14-.61.06-1.2.3-3.76.97,3.74,2.47,6.46,4.28,9.37,6.2-37,5.32-72.54,10.43-107.92,15.52,16.1-4.18,32.37-8.86,48.86-12.56,16.46-3.69,33.15-6.4,50.61-9.71-11.11-12.04-19.51-25.15-25.34-40.72,10.29,1.39,20.29,2.29,30.1,4.17,20.89,4,41.69,8.5,62.53,12.81,5.75,1.19,9.26-.5,10.2-4.96.96-4.56-1.29-7.98-6.95-8.94-14.43-2.43-28.88-4.99-43.42-6.52-18.67-1.97-37.43-2.98-56.16-4.4l.15.16c-1.97-13.44-4.04-26.87-5.86-40.34-.44-3.26-.07-6.63-.07-10.96,7.18,2.65,13.68,4.9,20.06,7.44,27.52,10.99,54.5,23.15,80.28,37.84,4.73,2.7,9.25,1.71,11.3-2.18,2.27-4.33.51-8.74-5.22-11-26.28-10.36-52.6-20.63-79.02-30.64-7.6-2.88-15.59-4.71-23.32-7.24-1.19-.39-2.87-2.09-2.8-3.08.29-4.13.41-8.58,2.11-12.19,1.02-2.17,5.03-4.43,7.42-4.16,7,.78,14.03,2.3,20.76,4.44,14.39,4.57,28.3,10.93,42.93,14.34,25.64,5.97,56.94-3.66,69.01-36.76,6.4-17.57,10.08-35.66,12.67-54.03,3.48-24.7,6.16-49.53,10.17-74.14,1.88-11.54,6.1-22.7,9.28-34.03.18-.63.48-1.25.81-1.82,3.89-6.8,8.1-13.29,17.2-13.23,9.08.05,13.56,6.42,17.03,13.42,6.44,12.96,9.09,27.08,11.15,41.24,4.21,28.96,8.02,57.98,12.17,86.95.8,5.58,2.36,11.05,3.58,16.57.18.81.69,1.67.55,2.42,2.76,16.09,8.12,23.08,14.67,32.87,12.14,18.12,31.33,23.08,52.2,21.87,14.32-.83,27.4-6.46,40.57-11.63,7.42-2.91,14.93-5.63,22.55-7.97,2.92-.9,6.27-.81,9.38-.58,3.98.3,6.79,2.28,7.2,6.75.36,3.94.97,7.85,1.45,11.53-16.32,5.32-32.3,9.95-47.83,15.75-19.31,7.21-38.35,15.17-57.27,23.35-3.37,1.46-5.7,5.47-8.27,8.52-.46.55-.06,2.44.57,3.18,2.53,2.93,9.57,3.7,13.41,1.51,25.36-14.41,51.87-26.4,78.89-37.3,6.74-2.72,13.62-5.1,22.05-8.24-.78,11.12-1.14,21.16-2.31,31.1-.81,6.89-2.74,13.65-4.17,20.46,0,0,.15-.16.15-.16-26.14,2.39-52.3,4.65-78.43,7.25-7.26.72-14.46,2.26-21.62,3.77-5.29,1.12-7.44,4.39-6.49,8.82.92,4.31,4.49,6.26,9.71,5.14,16.9-3.64,33.77-7.43,50.69-10.96,6.49-1.36,13.12-2.06,19.67-3.26,6.26-1.14,13.62-2.21,24.73-4.04-2.63,6.2-6.19,13.34-11.01,20.89-5.33,8.35-15.85,20.43-15.85,20.43Zm-112.76-55.44c-1.27-1.56-2.14-3.67-3.5-4.05-1.78-.5-4.5-.33-5.86.76-8.19,6.51-16.13,13.35-24.11,20.13-2.41,2.05-3.54,4.59-1.29,7.39,2.35,2.94,5.27,2.65,7.9.47,8.07-6.68,16.06-13.44,23.98-20.29,1.15-1,1.75-2.64,2.88-4.41Zm-61.07,26.38c1.21-1.61,3.05-2.97,3.09-4.37.05-1.85-.77-4.44-2.15-5.5-8.3-6.38-16.84-12.44-25.35-18.54-2.57-1.84-5.3-2.32-7.49.53-2.28,2.99-1.3,5.75,1.44,7.78,8.43,6.22,16.92,12.34,25.48,18.38,1.25.88,2.98,1.06,4.97,1.73Z"/>
      <path d="m118.18,224.05c4.88-7.43,12.15-18.75,20.5-32.85,6.95-11.73,14.33-25.3,40.45-73.43,9.3-17.13,18.45-34.33,31.76-48.84,15.93-17.36,35.49-27.47,58.92-30.66,18.56-2.53,36.89-2.09,55.01,2.5,24.06,6.1,42.9,20.26,56.01,40.83,12.3,19.32,22.41,40.03,33.86,59.91,13.37,23.21,27.07,46.22,40.77,69.23,8.34,14.01,16.41,28.13,21.31,43.32-9.72,1.71-19.46,2.68-28.72,5.31-6.83,1.94-12.91,6.38-19.56,9.14-8.08,3.35-25.05,10.62-43.4,5.72-22.73-6.06-34.07-26.78-35.89-31.63q-3.96-10.54-7.66-25.28c-4.34-35.49-6.38-58.21-9.69-77.05,0,0-1.95-20.15-11.42-53.88-1.38-4.92-4.19-9.47-7.03-13.72-11.48-17.21-33.27-17.25-44.94-.21-8.29,12.11-11.92,26.04-14.1,40.18-4.43,28.76-7.9,57.68-12.17,86.47-2.51,16.9-6.41,33.54-13.13,49.35-7.38,17.36-21.33,25.25-39.47,26.77-15.28,1.28-18.9-3.94-43.93-9.64-26.86-6.11-33.15-7.66-40.56-10.37-3.69-1.35.52-9.29,13.08-31.18Zm88.71-25.08c-.42-2.15-.75-5.66-1.82-8.93-3.3-10.03-12.07-12.11-19.8-4.87-9.15,8.57-12.72,24.64-8,35.94,3.58,8.58,11.41,10.57,18.46,4.49,7.69-6.63,10.5-15.48,11.16-26.64Zm167.97-.79c.72,11.95,3.56,21.13,11.7,27.87,5.93,4.91,12.84,3.82,16.76-2.36,7.25-11.43,1.99-33.6-9.65-40.74-6.26-3.84-12.83-2.23-15.82,4.48-1.72,3.85-2.31,8.21-2.99,10.75Z"/>
      <path d="m149.32,151.73c-12.57-7.81-25.28-4.06-38.03.67-7.61,2.82-13.73,1.47-16.24-4.88-1.67-4.22-1.72-9.87-.47-14.3,4.7-16.63,15.73-29.1,28.72-39.9,9.05-7.52,18.98-13.53,30.86-15.51,10.29-1.72,19.6.19,27.08,7.92.99,1.02,1.81,3.47,1.27,4.51-10.52,20.21-21.25,40.31-31.96,60.42-.14.27-.48.44-1.23,1.09Z"/>
      <path d="m469.25,131.47c6.08-2.17,8.67-8.85,5.42-14.2-2.09-3.43-5.57-4.96-8.96-3.27-2.2,1.1-4.32,4.17-4.64,6.6-.2,1.51,2.81,3.9,4.86,5,.72.38,2.88-1.92,4.38-3-.37-.23-.75-.45-1.12-.68-1.47.72-2.93,1.45-4.4,2.17-.5-1.48-1.84-3.49-1.31-4.34.97-1.57,2.97-3.33,4.65-3.44,3.2-.22,5.17,2.03,5.39,5.32.28,4.06-1.7,6.78-5.59,7.73-4.17,1.02-7.66-.46-9.82-4.17"/>
      <path d="m482.11,121.04c2.19,3.37,7.79,12.78,6.33,22.25-.45,2.93-1.4,4.57-2.25,5.69-2.58,3.43-7.01,5.25-11.71,4.4-2.27-.41-4.48-1.18-6.66-1.94-15.58-5.46-16.92-5.48-36.28-.02-4.13-7.97-8.27-16.08-12.52-24.13-6.14-11.61-12.15-23.3-18.69-34.68-2.16-3.77-1.43-5.71,1.53-8.29,3.04-2.66,6.3-4.54,9.73-5.71,0,0,6.91-2.15,14.95-1,10.46,1.49,27.45,11.18,45,28.24,3.53,5.06,7.05,10.13,10.58,15.19Z"/>
      <path d="m103.11,341.98c.74,2.16,1.47,4.32,2.14,6.26-25.99-1.29-51.66-2.56-76.45-3.79,6.43-.41,13.81-.97,21.2-1.33,7.46-.36,14.93-.61,22.4-.73,10.29-.17,20.58-.16,30.87-.24,0,0-.16-.17-.16-.17Z"/>
      <path d="m478.39,342.49c13.97.09,27.95-.05,41.91.34,11.28.32,22.54,1.28,34.9,2.03-19.74.87-38.34,1.65-56.94,2.54-4.98.24-7.88.6-18.18,1.11-4.51.22-3.24-.82-1.55-6.17,0,0-.14.15-.14.15Z"/>
      <path d="m96.79,289.33c-20.13-5.97-40.27-11.93-60.41-17.9,0-.08,0-.15,0-.23,10.02,1.85,20.09,3.48,30.05,5.61,9.08,1.93,18.03,4.51,27.09,6.57,3.57.81,4.85,2.41,3.28,5.95Z"/>
      <path d="m545.44,271.81c-10.09,2.75-20.22,5.32-30.24,8.29-10.02,2.97-19.92,6.34-30.01,9.57-1.26-3.03-1.44-5.3,2.31-6.1,18.35-3.93,36.69-7.89,55.04-11.81.96-.2,1.96-.19,2.94-.27-.01.11-.03.22-.04.32Z"/>
    </g>
  </g>
</svg>